<svg width="29" height="26" viewBox="0 0 29 26" fill="none" xmlns="http://www.w3.org/2000/svg">
<path d="M18.7798 13.1104L28.1806 21.0882V4.79565L18.7798 13.1104Z" fill="#9092B0"/>
<path d="M0.29538 4.79565V21.0882L9.69619 13.1104L0.29538 4.79565Z" fill="#9092B0"/>
<path d="M26.4378 0.0512695H2.0382C1.16853 0.0512695 0.478368 0.92158 0.347656 2.04222L14.238 14.3272L28.1283 2.04222C27.9976 0.92158 27.3075 0.0512695 26.4378 0.0512695Z" fill="#9092B0"/>
<path d="M17.1831 14.5236L14.717 16.704C14.5706 16.8327 14.4051 16.8959 14.2378 16.8959C14.0705 16.8959 13.9049 16.8327 13.7585 16.704L11.2924 14.5212L0.350922 23.8116C0.485119 24.9229 1.17179 25.7861 2.03798 25.7861H26.4376C27.3037 25.7861 27.9904 24.9229 28.1246 23.8116L17.1831 14.5236Z" fill="#9092B0"/>
</svg>
